<?xml version="1.0" encoding="UTF-8"?>
<svg xmlns="http://www.w3.org/2000/svg" version="1.0" viewBox="70 70 372.000000 372.000000">
  <g transform="matrix(.1 0 0 -.1 0 512)" fill="#000000">
    <path d="M2425 3844c-359-39-681-234-880-534-91-136-167-308-190-430-4-19-13-45-21-57-11-18-14-72-14-250 1-250 6-293 43-327 13-12 34-54 47-92 54-165 160-346 280-476 63-70 199-176 305-241 68-42 217-98 345-130 72-18 115-21 275-22 176 0 198 2 293 28 110 29 142 42 142 57 0 13-5 13-80-11-143-44-391-62-540-38-83 13-278 78-361 120-35 17-104 59-154 93-96 65-264 220-252 232 4 4 27-12 52-36s48-41 52-37c7 7 0 16-120 173-107 141-162 259-208 444-19 79-23 122-23 255-1 177 11 265 54 389 40 116 62 163 119 255 39 63 50 88 45 107-6 21 6 37 82 112 161 158 295 243 484 306 157 53 275 69 455 63 185-6 276-28 433-103 131-62 147-52 21 13-98 51-229 95-349 117-88 17-265 27-335 20"/>
    <path d="M2465 3541c-130-17-309-82-385-141-24-18-24-20-8-36s23-15 115 28c152 70 212 83 388 82 127-1 165-6 247-27 125-33 234-90 339-177 46-39 89-70 96-70 36 0 194-238 247-371 80-205 47-484-87-729-40-74-73-116-147-191-181-182-365-259-617-259-99 0-117 3-228 41-143 48-265 110-350 180-148 120-269 323-309 521-34 164-12 189 27 31 27-113 88-248 133-296 47-51 44-27-11 76-77 146-99 232-99 387 1 154 16 219 86 360 45 91 65 117 143 195 68 69 109 101 170 132 222 114 440 121 672 22 102-43 103-43 103-29 0 5-33 26-72 46-246 124-460 133-687 28-139-64-240-154-343-304-34-49-50-64-66-63-29 3-44-22-81-132-102-308-37-647 173-904 131-160 318-274 545-332 91-23 293-26 392-5 157 34 332 130 460 253 132 127 223 270 286 450 27 76 28 85 28 288 0 205-1 212-29 298-31 96-54 132-82 132-12 0-36 26-65 69-65 95-188 217-288 283-98 66-236 125-341 146-93 19-275 28-355 18"/>
    <path d="M3640 3521c0-5 19-32 43-59 86-101 176-278 232-453 26-83 67-308 59-321-3-5-14-8-25-8-18 0-19-8-19-101 0-321-119-646-323-882l-50-59 25-24 25-25 61 66c254 271 396 708 353 1085-32 281-119 493-289 703-53 65-92 99-92 78m5-1851c3-5-6-22-21-37-32-32-45-17-20 22 17 26 31 31 41 15M1176 3443c-219-301-324-710-275-1070 19-145 88-383 110-383 13 0 11 11-6 61-17 48-59 213-69 269-10 62 10 10 43-108 51-185 164-414 262-532 46-56 33-21-28 76-131 206-212 443-234 685-21 222 1 441 61 619 25 73 97 227 131 280 12 19 16 29 9 23-8-7-18-13-22-13-16 0-7 23 25 69 45 62 50 71 38 71-6 0-26-21-45-47m1329-299c-168-24-326-127-408-265-56-95-79-177-79-284 0-162 47-288 150-397 99-105 194-155 336-178 119-19 296 23 296 70 0 30-22 34-87 14-129-39-292-16-409 58-100 63-204 192-177 219 7 7 6 24-3 54-70 235 32 472 250 578 68 34 90 39 171 44 76 5 104 2 161-15 88-27 178-80 230-136 50-55 115-183 122-242 5-49 20-67 54-62 74 10-8 265-123 378-63 62-147 116-223 141-52 18-204 31-261 23m785-31c0-3 14-27 30-53 62-96 115-265 128-406 7-80 25-108 37-56 8 38-19 212-44 286-24 68-59 133-104 193-30 39-47 53-47 36"/>
    <path d="M2465 2767c-17-8-46-29-64-48-115-114-63-302 96-349 174-52 332 157 234 311-16 25-45 56-64 68-46 28-158 38-202 18m595-313c-6-14-10-30-10-35 0-29-70-141-120-194l-58-60 20-25 20-25 72 76c76 81 131 176 142 247 7 42 6 42-25 42-25 0-34-6-41-26m-159-394c-47-32-169-75-238-86-24-4-48-13-54-20-37-44 126-19 238 36 92 46 113 61 113 84 0 21-7 20-59-14m339-46c-87-89-164-147-263-199-109-58-177-75-308-75-122 0-169-7-169-25 0-16 24-22 120-31 214-19 448 75 621 247 81 81 103 113 95 134-10 27-30 16-96-51"/>
  </g>
</svg>
